<svg width="557" height="18" viewBox="0 0 557 18" fill="none" xmlns="http://www.w3.org/2000/svg">
<path d="M2.28963 3.352V6.616H6.12963V8.104H2.28963V11.512H6.60963V13H0.465625V1.864H6.60963V3.352H2.28963ZM13.3043 4.04C13.9976 4.04 14.6163 4.184 15.1603 4.472C15.7149 4.76 16.1469 5.18667 16.4563 5.752C16.7656 6.31733 16.9203 7 16.9203 7.8V13H15.1123V8.072C15.1123 7.28267 14.9149 6.68 14.5203 6.264C14.1256 5.83733 13.5869 5.624 12.9043 5.624C12.2216 5.624 11.6776 5.83733 11.2723 6.264C10.8776 6.68 10.6803 7.28267 10.6803 8.072V13H8.85625V4.184H10.6803V5.192C10.9789 4.82933 11.3576 4.54667 11.8163 4.344C12.2856 4.14133 12.7816 4.04 13.3043 4.04ZM18.6389 8.584C18.6389 7.67733 18.8202 6.88267 19.1829 6.2C19.5562 5.50667 20.0682 4.97333 20.7189 4.6C21.3695 4.22667 22.1162 4.04 22.9589 4.04C24.0255 4.04 24.9055 4.296 25.5989 4.808C26.3029 5.30933 26.7775 6.02933 27.0229 6.968H25.0549C24.8949 6.53067 24.6389 6.18933 24.2869 5.944C23.9349 5.69867 23.4922 5.576 22.9589 5.576C22.2122 5.576 21.6149 5.84267 21.1669 6.376C20.7295 6.89867 20.5109 7.63467 20.5109 8.584C20.5109 9.53333 20.7295 10.2747 21.1669 10.808C21.6149 11.3413 22.2122 11.608 22.9589 11.608C24.0149 11.608 24.7135 11.144 25.0549 10.216H27.0229C26.7669 11.112 26.2869 11.8267 25.5829 12.36C24.8789 12.8827 24.0042 13.144 22.9589 13.144C22.1162 13.144 21.3695 12.9573 20.7189 12.584C20.0682 12.2 19.5562 11.6667 19.1829 10.984C18.8202 10.2907 18.6389 9.49067 18.6389 8.584ZM32.6646 13.144C31.8326 13.144 31.0806 12.9573 30.4086 12.584C29.7366 12.2 29.2086 11.6667 28.8246 10.984C28.4406 10.2907 28.2486 9.49067 28.2486 8.584C28.2486 7.688 28.446 6.89333 28.8406 6.2C29.2353 5.50667 29.774 4.97333 30.4566 4.6C31.1393 4.22667 31.902 4.04 32.7446 4.04C33.5873 4.04 34.35 4.22667 35.0326 4.6C35.7153 4.97333 36.254 5.50667 36.6486 6.2C37.0433 6.89333 37.2406 7.688 37.2406 8.584C37.2406 9.48 37.038 10.2747 36.6326 10.968C36.2273 11.6613 35.6726 12.2 34.9686 12.584C34.2753 12.9573 33.5073 13.144 32.6646 13.144ZM32.6646 11.56C33.134 11.56 33.5713 11.448 33.9766 11.224C34.3926 11 34.7286 10.664 34.9846 10.216C35.2406 9.768 35.3686 9.224 35.3686 8.584C35.3686 7.944 35.246 7.40533 35.0006 6.968C34.7553 6.52 34.43 6.184 34.0246 5.96C33.6193 5.736 33.182 5.624 32.7126 5.624C32.2433 5.624 31.806 5.736 31.4006 5.96C31.006 6.184 30.6913 6.52 30.4566 6.968C30.222 7.40533 30.1046 7.944 30.1046 8.584C30.1046 9.53333 30.3446 10.2693 30.8246 10.792C31.3153 11.304 31.9286 11.56 32.6646 11.56ZM43.4918 4.04C44.1851 4.04 44.8038 4.184 45.3478 4.472C45.9024 4.76 46.3344 5.18667 46.6438 5.752C46.9531 6.31733 47.1078 7 47.1078 7.8V13H45.2998V8.072C45.2998 7.28267 45.1024 6.68 44.7078 6.264C44.3131 5.83733 43.7744 5.624 43.0918 5.624C42.4091 5.624 41.8651 5.83733 41.4598 6.264C41.0651 6.68 40.8678 7.28267 40.8678 8.072V13H39.0438V4.184H40.8678V5.192C41.1664 4.82933 41.5451 4.54667 42.0038 4.344C42.4731 4.14133 42.9691 4.04 43.4918 4.04ZM51.5624 5.672V10.552C51.5624 10.8827 51.637 11.1227 51.7864 11.272C51.9464 11.4107 52.213 11.48 52.5864 11.48H53.7064V13H52.2664C51.445 13 50.8157 12.808 50.3784 12.424C49.941 12.04 49.7224 11.416 49.7224 10.552V5.672H48.6824V4.184H49.7224V1.992H51.5624V4.184H53.7064V5.672H51.5624ZM57.2115 5.464C57.4782 5.016 57.8302 4.66933 58.2675 4.424C58.7155 4.168 59.2435 4.04 59.8515 4.04V5.928H59.3875C58.6728 5.928 58.1288 6.10933 57.7555 6.472C57.3928 6.83467 57.2115 7.464 57.2115 8.36V13H55.3875V4.184H57.2115V5.464ZM69.6081 8.376C69.6081 8.70667 69.5868 9.00533 69.5441 9.272H62.8081C62.8615 9.976 63.1228 10.5413 63.5921 10.968C64.0615 11.3947 64.6375 11.608 65.3201 11.608C66.3015 11.608 66.9948 11.1973 67.4001 10.376H69.3681C69.1015 11.1867 68.6161 11.8533 67.9121 12.376C67.2188 12.888 66.3548 13.144 65.3201 13.144C64.4775 13.144 63.7201 12.9573 63.0481 12.584C62.3868 12.2 61.8641 11.6667 61.4801 10.984C61.1068 10.2907 60.9201 9.49067 60.9201 8.584C60.9201 7.67733 61.1015 6.88267 61.4641 6.2C61.8375 5.50667 62.3548 4.97333 63.0161 4.6C63.6881 4.22667 64.4561 4.04 65.3201 4.04C66.1521 4.04 66.8935 4.22133 67.5441 4.584C68.1948 4.94667 68.7015 5.45867 69.0641 6.12C69.4268 6.77067 69.6081 7.52267 69.6081 8.376ZM67.7041 7.8C67.6935 7.128 67.4535 6.58933 66.9841 6.184C66.5148 5.77867 65.9335 5.576 65.2401 5.576C64.6108 5.576 64.0721 5.77867 63.6241 6.184C63.1761 6.57867 62.9095 7.11733 62.8241 7.8H67.7041ZM83.6394 8.376C83.6394 8.70667 83.618 9.00533 83.5754 9.272H76.8394C76.8927 9.976 77.154 10.5413 77.6234 10.968C78.0927 11.3947 78.6687 11.608 79.3514 11.608C80.3327 11.608 81.026 11.1973 81.4314 10.376H83.3994C83.1327 11.1867 82.6474 11.8533 81.9434 12.376C81.25 12.888 80.386 13.144 79.3514 13.144C78.5087 13.144 77.7514 12.9573 77.0794 12.584C76.418 12.2 75.8954 11.6667 75.5114 10.984C75.138 10.2907 74.9514 9.49067 74.9514 8.584C74.9514 7.67733 75.1327 6.88267 75.4954 6.2C75.8687 5.50667 76.386 4.97333 77.0474 4.6C77.7194 4.22667 78.4874 4.04 79.3514 4.04C80.1834 4.04 80.9247 4.22133 81.5754 4.584C82.226 4.94667 82.7327 5.45867 83.0954 6.12C83.458 6.77067 83.6394 7.52267 83.6394 8.376ZM81.7354 7.8C81.7247 7.128 81.4847 6.58933 81.0154 6.184C80.546 5.77867 79.9647 5.576 79.2714 5.576C78.642 5.576 78.1034 5.77867 77.6554 6.184C77.2074 6.57867 76.9407 7.11733 76.8554 7.8H81.7354ZM96.1064 4.04C96.7997 4.04 97.4184 4.184 97.9624 4.472C98.517 4.76 98.949 5.18667 99.2584 5.752C99.5784 6.31733 99.7384 7 99.7384 7.8V13H97.9304V8.072C97.9304 7.28267 97.733 6.68 97.3384 6.264C96.9437 5.83733 96.405 5.624 95.7224 5.624C95.0397 5.624 94.4957 5.83733 94.0904 6.264C93.6957 6.68 93.4984 7.28267 93.4984 8.072V13H91.6904V8.072C91.6904 7.28267 91.493 6.68 91.0984 6.264C90.7037 5.83733 90.165 5.624 89.4824 5.624C88.7997 5.624 88.2557 5.83733 87.8504 6.264C87.4557 6.68 87.2584 7.28267 87.2584 8.072V13H85.4344V4.184H87.2584V5.192C87.557 4.82933 87.9357 4.54667 88.3944 4.344C88.853 4.14133 89.3437 4.04 89.8664 4.04C90.5704 4.04 91.1997 4.18933 91.7544 4.488C92.309 4.78667 92.7357 5.21867 93.0344 5.784C93.301 5.25067 93.717 4.82933 94.2824 4.52C94.8477 4.2 95.4557 4.04 96.1064 4.04ZM110.664 4.04C111.357 4.04 111.976 4.184 112.52 4.472C113.074 4.76 113.506 5.18667 113.816 5.752C114.125 6.31733 114.28 7 114.28 7.8V13H112.472V8.072C112.472 7.28267 112.274 6.68 111.88 6.264C111.485 5.83733 110.946 5.624 110.264 5.624C109.581 5.624 109.037 5.83733 108.632 6.264C108.237 6.68 108.04 7.28267 108.04 8.072V13H106.216V4.184H108.04V5.192C108.338 4.82933 108.717 4.54667 109.176 4.344C109.645 4.14133 110.141 4.04 110.664 4.04ZM120.43 13.144C119.598 13.144 118.846 12.9573 118.174 12.584C117.502 12.2 116.974 11.6667 116.59 10.984C116.206 10.2907 116.014 9.49067 116.014 8.584C116.014 7.688 116.212 6.89333 116.606 6.2C117.001 5.50667 117.54 4.97333 118.222 4.6C118.905 4.22667 119.668 4.04 120.51 4.04C121.353 4.04 122.116 4.22667 122.798 4.6C123.481 4.97333 124.02 5.50667 124.414 6.2C124.809 6.89333 125.006 7.688 125.006 8.584C125.006 9.48 124.804 10.2747 124.398 10.968C123.993 11.6613 123.438 12.2 122.734 12.584C122.041 12.9573 121.273 13.144 120.43 13.144ZM120.43 11.56C120.9 11.56 121.337 11.448 121.742 11.224C122.158 11 122.494 10.664 122.75 10.216C123.006 9.768 123.134 9.224 123.134 8.584C123.134 7.944 123.012 7.40533 122.766 6.968C122.521 6.52 122.196 6.184 121.79 5.96C121.385 5.736 120.948 5.624 120.478 5.624C120.009 5.624 119.572 5.736 119.166 5.96C118.772 6.184 118.457 6.52 118.222 6.968C117.988 7.40533 117.87 7.944 117.87 8.584C117.87 9.53333 118.11 10.2693 118.59 10.792C119.081 11.304 119.694 11.56 120.43 11.56ZM130.009 13.144C129.316 13.144 128.692 13.0213 128.137 12.776C127.593 12.52 127.161 12.1787 126.841 11.752C126.521 11.3147 126.351 10.8293 126.329 10.296H128.217C128.249 10.6693 128.425 10.984 128.745 11.24C129.076 11.4853 129.487 11.608 129.977 11.608C130.489 11.608 130.884 11.512 131.161 11.32C131.449 11.1173 131.593 10.8613 131.593 10.552C131.593 10.2213 131.433 9.976 131.113 9.816C130.804 9.656 130.308 9.48 129.625 9.288C128.964 9.10667 128.425 8.93067 128.009 8.76C127.593 8.58933 127.231 8.328 126.921 7.976C126.623 7.624 126.473 7.16 126.473 6.584C126.473 6.11467 126.612 5.688 126.889 5.304C127.167 4.90933 127.561 4.6 128.073 4.376C128.596 4.152 129.193 4.04 129.865 4.04C130.868 4.04 131.673 4.296 132.281 4.808C132.9 5.30933 133.231 5.99733 133.273 6.872H131.449C131.417 6.47733 131.257 6.16267 130.969 5.928C130.681 5.69333 130.292 5.576 129.801 5.576C129.321 5.576 128.953 5.66667 128.697 5.848C128.441 6.02933 128.313 6.26933 128.313 6.568C128.313 6.80267 128.399 7 128.569 7.16C128.74 7.32 128.948 7.448 129.193 7.544C129.439 7.62933 129.801 7.74133 130.281 7.88C130.921 8.05067 131.444 8.22667 131.849 8.408C132.265 8.57867 132.623 8.83467 132.921 9.176C133.22 9.51733 133.375 9.97067 133.385 10.536C133.385 11.0373 133.247 11.4853 132.969 11.88C132.692 12.2747 132.297 12.584 131.785 12.808C131.284 13.032 130.692 13.144 130.009 13.144ZM138.556 13.144C137.863 13.144 137.239 13.0213 136.684 12.776C136.14 12.52 135.708 12.1787 135.388 11.752C135.068 11.3147 134.898 10.8293 134.876 10.296H136.764C136.796 10.6693 136.972 10.984 137.292 11.24C137.623 11.4853 138.034 11.608 138.524 11.608C139.036 11.608 139.431 11.512 139.708 11.32C139.996 11.1173 140.14 10.8613 140.14 10.552C140.14 10.2213 139.98 9.976 139.66 9.816C139.351 9.656 138.855 9.48 138.172 9.288C137.511 9.10667 136.972 8.93067 136.556 8.76C136.14 8.58933 135.778 8.328 135.468 7.976C135.17 7.624 135.02 7.16 135.02 6.584C135.02 6.11467 135.159 5.688 135.436 5.304C135.714 4.90933 136.108 4.6 136.62 4.376C137.143 4.152 137.74 4.04 138.412 4.04C139.415 4.04 140.22 4.296 140.828 4.808C141.447 5.30933 141.778 5.99733 141.82 6.872H139.996C139.964 6.47733 139.804 6.16267 139.516 5.928C139.228 5.69333 138.839 5.576 138.348 5.576C137.868 5.576 137.5 5.66667 137.244 5.848C136.988 6.02933 136.86 6.26933 136.86 6.568C136.86 6.80267 136.946 7 137.116 7.16C137.287 7.32 137.495 7.448 137.74 7.544C137.986 7.62933 138.348 7.74133 138.828 7.88C139.468 8.05067 139.991 8.22667 140.396 8.408C140.812 8.57867 141.17 8.83467 141.468 9.176C141.767 9.51733 141.922 9.97067 141.932 10.536C141.932 11.0373 141.794 11.4853 141.516 11.88C141.239 12.2747 140.844 12.584 140.332 12.808C139.831 13.032 139.239 13.144 138.556 13.144ZM143.295 8.552C143.295 7.66667 143.476 6.88267 143.839 6.2C144.212 5.51733 144.714 4.98933 145.343 4.616C145.983 4.232 146.687 4.04 147.455 4.04C148.148 4.04 148.751 4.17867 149.263 4.456C149.786 4.72267 150.202 5.05867 150.511 5.464V4.184H152.351V13H150.511V11.688C150.202 12.104 149.78 12.4507 149.247 12.728C148.714 13.0053 148.106 13.144 147.423 13.144C146.666 13.144 145.972 12.952 145.343 12.568C144.714 12.1733 144.212 11.6293 143.839 10.936C143.476 10.232 143.295 9.43733 143.295 8.552ZM150.511 8.584C150.511 7.976 150.383 7.448 150.127 7C149.882 6.552 149.556 6.21067 149.151 5.976C148.746 5.74133 148.308 5.624 147.839 5.624C147.37 5.624 146.932 5.74133 146.527 5.976C146.122 6.2 145.791 6.536 145.535 6.984C145.29 7.42133 145.167 7.944 145.167 8.552C145.167 9.16 145.29 9.69333 145.535 10.152C145.791 10.6107 146.122 10.9627 146.527 11.208C146.943 11.4427 147.38 11.56 147.839 11.56C148.308 11.56 148.746 11.4427 149.151 11.208C149.556 10.9733 149.882 10.632 150.127 10.184C150.383 9.72533 150.511 9.192 150.511 8.584ZM166.983 8.376C166.983 8.70667 166.962 9.00533 166.919 9.272H160.183C160.236 9.976 160.498 10.5413 160.967 10.968C161.436 11.3947 162.012 11.608 162.695 11.608C163.676 11.608 164.37 11.1973 164.775 10.376H166.743C166.476 11.1867 165.991 11.8533 165.287 12.376C164.594 12.888 163.73 13.144 162.695 13.144C161.852 13.144 161.095 12.9573 160.423 12.584C159.762 12.2 159.239 11.6667 158.855 10.984C158.482 10.2907 158.295 9.49067 158.295 8.584C158.295 7.67733 158.476 6.88267 158.839 6.2C159.212 5.50667 159.73 4.97333 160.391 4.6C161.063 4.22667 161.831 4.04 162.695 4.04C163.527 4.04 164.268 4.22133 164.919 4.584C165.57 4.94667 166.076 5.45867 166.439 6.12C166.802 6.77067 166.983 7.52267 166.983 8.376ZM165.079 7.8C165.068 7.128 164.828 6.58933 164.359 6.184C163.89 5.77867 163.308 5.576 162.615 5.576C161.986 5.576 161.447 5.77867 160.999 6.184C160.551 6.57867 160.284 7.11733 160.199 7.8H165.079ZM171.978 13.144C171.285 13.144 170.661 13.0213 170.106 12.776C169.562 12.52 169.13 12.1787 168.81 11.752C168.49 11.3147 168.319 10.8293 168.298 10.296H170.186C170.218 10.6693 170.394 10.984 170.714 11.24C171.045 11.4853 171.455 11.608 171.946 11.608C172.458 11.608 172.853 11.512 173.13 11.32C173.418 11.1173 173.562 10.8613 173.562 10.552C173.562 10.2213 173.402 9.976 173.082 9.816C172.773 9.656 172.277 9.48 171.594 9.288C170.933 9.10667 170.394 8.93067 169.978 8.76C169.562 8.58933 169.199 8.328 168.89 7.976C168.591 7.624 168.442 7.16 168.442 6.584C168.442 6.11467 168.581 5.688 168.858 5.304C169.135 4.90933 169.53 4.6 170.042 4.376C170.565 4.152 171.162 4.04 171.834 4.04C172.837 4.04 173.642 4.296 174.25 4.808C174.869 5.30933 175.199 5.99733 175.242 6.872H173.418C173.386 6.47733 173.226 6.16267 172.938 5.928C172.65 5.69333 172.261 5.576 171.77 5.576C171.29 5.576 170.922 5.66667 170.666 5.848C170.41 6.02933 170.282 6.26933 170.282 6.568C170.282 6.80267 170.367 7 170.538 7.16C170.709 7.32 170.917 7.448 171.162 7.544C171.407 7.62933 171.77 7.74133 172.25 7.88C172.89 8.05067 173.413 8.22667 173.818 8.408C174.234 8.57867 174.591 8.83467 174.89 9.176C175.189 9.51733 175.343 9.97067 175.354 10.536C175.354 11.0373 175.215 11.4853 174.938 11.88C174.661 12.2747 174.266 12.584 173.754 12.808C173.253 13.032 172.661 13.144 171.978 13.144ZM179.453 5.672V10.552C179.453 10.8827 179.528 11.1227 179.677 11.272C179.837 11.4107 180.104 11.48 180.477 11.48H181.597V13H180.157C179.336 13 178.706 12.808 178.269 12.424C177.832 12.04 177.613 11.416 177.613 10.552V5.672H176.573V4.184H177.613V1.992H179.453V4.184H181.597V5.672H179.453ZM182.67 8.552C182.67 7.66667 182.851 6.88267 183.214 6.2C183.587 5.51733 184.089 4.98933 184.718 4.616C185.358 4.232 186.062 4.04 186.83 4.04C187.523 4.04 188.126 4.17867 188.638 4.456C189.161 4.72267 189.577 5.05867 189.886 5.464V4.184H191.726V13H189.886V11.688C189.577 12.104 189.155 12.4507 188.622 12.728C188.089 13.0053 187.481 13.144 186.798 13.144C186.041 13.144 185.347 12.952 184.718 12.568C184.089 12.1733 183.587 11.6293 183.214 10.936C182.851 10.232 182.67 9.43733 182.67 8.552ZM189.886 8.584C189.886 7.976 189.758 7.448 189.502 7C189.257 6.552 188.931 6.21067 188.526 5.976C188.121 5.74133 187.683 5.624 187.214 5.624C186.745 5.624 186.307 5.74133 185.902 5.976C185.497 6.2 185.166 6.536 184.91 6.984C184.665 7.42133 184.542 7.944 184.542 8.552C184.542 9.16 184.665 9.69333 184.91 10.152C185.166 10.6107 185.497 10.9627 185.902 11.208C186.318 11.4427 186.755 11.56 187.214 11.56C187.683 11.56 188.121 11.4427 188.526 11.208C188.931 10.9733 189.257 10.632 189.502 10.184C189.758 9.72533 189.886 9.192 189.886 8.584ZM198.57 4.04C199.263 4.04 199.882 4.184 200.426 4.472C200.981 4.76 201.413 5.18667 201.722 5.752C202.031 6.31733 202.186 7 202.186 7.8V13H200.378V8.072C200.378 7.28267 200.181 6.68 199.786 6.264C199.391 5.83733 198.853 5.624 198.17 5.624C197.487 5.624 196.943 5.83733 196.538 6.264C196.143 6.68 195.946 7.28267 195.946 8.072V13H194.122V4.184H195.946V5.192C196.245 4.82933 196.623 4.54667 197.082 4.344C197.551 4.14133 198.047 4.04 198.57 4.04ZM206.641 5.672V10.552C206.641 10.8827 206.715 11.1227 206.865 11.272C207.025 11.4107 207.291 11.48 207.665 11.48H208.785V13H207.345C206.523 13 205.894 12.808 205.457 12.424C205.019 12.04 204.801 11.416 204.801 10.552V5.672H203.761V4.184H204.801V1.992H206.641V4.184H208.785V5.672H206.641ZM218.546 8.376C218.546 8.70667 218.524 9.00533 218.482 9.272H211.746C211.799 9.976 212.06 10.5413 212.53 10.968C212.999 11.3947 213.575 11.608 214.258 11.608C215.239 11.608 215.932 11.1973 216.338 10.376H218.306C218.039 11.1867 217.554 11.8533 216.85 12.376C216.156 12.888 215.292 13.144 214.258 13.144C213.415 13.144 212.658 12.9573 211.986 12.584C211.324 12.2 210.802 11.6667 210.418 10.984C210.044 10.2907 209.858 9.49067 209.858 8.584C209.858 7.67733 210.039 6.88267 210.402 6.2C210.775 5.50667 211.292 4.97333 211.954 4.6C212.626 4.22667 213.394 4.04 214.258 4.04C215.09 4.04 215.831 4.22133 216.482 4.584C217.132 4.94667 217.639 5.45867 218.002 6.12C218.364 6.77067 218.546 7.52267 218.546 8.376ZM216.642 7.8C216.631 7.128 216.391 6.58933 215.922 6.184C215.452 5.77867 214.871 5.576 214.178 5.576C213.548 5.576 213.01 5.77867 212.562 6.184C212.114 6.57867 211.847 7.11733 211.762 7.8H216.642ZM228.321 13.144C227.489 13.144 226.737 12.9573 226.065 12.584C225.393 12.2 224.865 11.6667 224.481 10.984C224.097 10.2907 223.905 9.49067 223.905 8.584C223.905 7.688 224.102 6.89333 224.497 6.2C224.892 5.50667 225.43 4.97333 226.113 4.6C226.796 4.22667 227.558 4.04 228.401 4.04C229.244 4.04 230.006 4.22667 230.689 4.6C231.372 4.97333 231.91 5.50667 232.305 6.2C232.7 6.89333 232.897 7.688 232.897 8.584C232.897 9.48 232.694 10.2747 232.289 10.968C231.884 11.6613 231.329 12.2 230.625 12.584C229.932 12.9573 229.164 13.144 228.321 13.144ZM228.321 11.56C228.79 11.56 229.228 11.448 229.633 11.224C230.049 11 230.385 10.664 230.641 10.216C230.897 9.768 231.025 9.224 231.025 8.584C231.025 7.944 230.902 7.40533 230.657 6.968C230.412 6.52 230.086 6.184 229.681 5.96C229.276 5.736 228.838 5.624 228.369 5.624C227.9 5.624 227.462 5.736 227.057 5.96C226.662 6.184 226.348 6.52 226.113 6.968C225.878 7.40533 225.761 7.944 225.761 8.584C225.761 9.53333 226.001 10.2693 226.481 10.792C226.972 11.304 227.585 11.56 228.321 11.56ZM238.248 8.552C238.248 7.66667 238.43 6.88267 238.792 6.2C239.166 5.51733 239.667 4.98933 240.296 4.616C240.936 4.232 241.646 4.04 242.424 4.04C243.107 4.04 243.71 4.17867 244.232 4.456C244.766 4.73333 245.176 5.06933 245.464 5.464V4.184H247.304V17.192H245.464V11.72C245.176 12.1147 244.76 12.4507 244.216 12.728C243.672 13.0053 243.054 13.144 242.36 13.144C241.603 13.144 240.91 12.952 240.28 12.568C239.662 12.1733 239.166 11.6293 238.792 10.936C238.43 10.232 238.248 9.43733 238.248 8.552ZM245.464 8.584C245.464 7.976 245.336 7.448 245.08 7C244.835 6.552 244.51 6.21067 244.104 5.976C243.699 5.74133 243.262 5.624 242.792 5.624C242.323 5.624 241.886 5.74133 241.48 5.976C241.075 6.2 240.744 6.536 240.488 6.984C240.243 7.42133 240.12 7.944 240.12 8.552C240.12 9.16 240.243 9.69333 240.488 10.152C240.744 10.6107 241.075 10.9627 241.48 11.208C241.896 11.4427 242.334 11.56 242.792 11.56C243.262 11.56 243.699 11.4427 244.104 11.208C244.51 10.9733 244.835 10.632 245.08 10.184C245.336 9.72533 245.464 9.192 245.464 8.584ZM257.684 4.184V13H255.86V11.96C255.572 12.3227 255.193 12.6107 254.724 12.824C254.265 13.0267 253.775 13.128 253.252 13.128C252.559 13.128 251.935 12.984 251.38 12.696C250.836 12.408 250.404 11.9813 250.084 11.416C249.775 10.8507 249.62 10.168 249.62 9.368V4.184H251.428V9.096C251.428 9.88533 251.625 10.4933 252.02 10.92C252.415 11.336 252.953 11.544 253.636 11.544C254.319 11.544 254.857 11.336 255.252 10.92C255.657 10.4933 255.86 9.88533 255.86 9.096V4.184H257.684ZM268.171 8.376C268.171 8.70667 268.149 9.00533 268.107 9.272H261.371C261.424 9.976 261.685 10.5413 262.155 10.968C262.624 11.3947 263.2 11.608 263.883 11.608C264.864 11.608 265.557 11.1973 265.963 10.376H267.931C267.664 11.1867 267.179 11.8533 266.475 12.376C265.781 12.888 264.917 13.144 263.883 13.144C263.04 13.144 262.283 12.9573 261.611 12.584C260.949 12.2 260.427 11.6667 260.043 10.984C259.669 10.2907 259.483 9.49067 259.483 8.584C259.483 7.67733 259.664 6.88267 260.027 6.2C260.4 5.50667 260.917 4.97333 261.579 4.6C262.251 4.22667 263.019 4.04 263.883 4.04C264.715 4.04 265.456 4.22133 266.107 4.584C266.757 4.94667 267.264 5.45867 267.627 6.12C267.989 6.77067 268.171 7.52267 268.171 8.376ZM266.267 7.8C266.256 7.128 266.016 6.58933 265.547 6.184C265.077 5.77867 264.496 5.576 263.803 5.576C263.173 5.576 262.635 5.77867 262.187 6.184C261.739 6.57867 261.472 7.11733 261.387 7.8H266.267ZM275.946 5.48C276.255 5.07467 276.677 4.73333 277.21 4.456C277.743 4.17867 278.346 4.04 279.018 4.04C279.786 4.04 280.485 4.232 281.114 4.616C281.754 4.98933 282.255 5.51733 282.618 6.2C282.981 6.88267 283.162 7.66667 283.162 8.552C283.162 9.43733 282.981 10.232 282.618 10.936C282.255 11.6293 281.754 12.1733 281.114 12.568C280.485 12.952 279.786 13.144 279.018 13.144C278.346 13.144 277.749 13.0107 277.226 12.744C276.703 12.4667 276.277 12.1253 275.946 11.72V17.192H274.122V4.184H275.946V5.48ZM281.306 8.552C281.306 7.944 281.178 7.42133 280.922 6.984C280.677 6.536 280.346 6.2 279.93 5.976C279.525 5.74133 279.087 5.624 278.618 5.624C278.159 5.624 277.722 5.74133 277.306 5.976C276.901 6.21067 276.57 6.552 276.314 7C276.069 7.448 275.946 7.976 275.946 8.584C275.946 9.192 276.069 9.72533 276.314 10.184C276.57 10.632 276.901 10.9733 277.306 11.208C277.722 11.4427 278.159 11.56 278.618 11.56C279.087 11.56 279.525 11.4427 279.93 11.208C280.346 10.9627 280.677 10.6107 280.922 10.152C281.178 9.69333 281.306 9.16 281.306 8.552ZM286.79 5.464C287.056 5.016 287.408 4.66933 287.846 4.424C288.294 4.168 288.822 4.04 289.43 4.04V5.928H288.966C288.251 5.928 287.707 6.10933 287.334 6.472C286.971 6.83467 286.79 7.464 286.79 8.36V13H284.966V4.184H286.79V5.464ZM299.186 8.376C299.186 8.70667 299.165 9.00533 299.122 9.272H292.386C292.44 9.976 292.701 10.5413 293.17 10.968C293.64 11.3947 294.216 11.608 294.898 11.608C295.88 11.608 296.573 11.1973 296.978 10.376H298.946C298.68 11.1867 298.194 11.8533 297.49 12.376C296.797 12.888 295.933 13.144 294.898 13.144C294.056 13.144 293.298 12.9573 292.626 12.584C291.965 12.2 291.442 11.6667 291.058 10.984C290.685 10.2907 290.498 9.49067 290.498 8.584C290.498 7.67733 290.68 6.88267 291.042 6.2C291.416 5.50667 291.933 4.97333 292.594 4.6C293.266 4.22667 294.034 4.04 294.898 4.04C295.73 4.04 296.472 4.22133 297.122 4.584C297.773 4.94667 298.28 5.45867 298.642 6.12C299.005 6.77067 299.186 7.52267 299.186 8.376ZM297.282 7.8C297.272 7.128 297.032 6.58933 296.562 6.184C296.093 5.77867 295.512 5.576 294.818 5.576C294.189 5.576 293.65 5.77867 293.202 6.184C292.754 6.57867 292.488 7.11733 292.402 7.8H297.282ZM300.373 8.584C300.373 7.67733 300.555 6.88267 300.917 6.2C301.291 5.50667 301.803 4.97333 302.453 4.6C303.104 4.22667 303.851 4.04 304.693 4.04C305.76 4.04 306.64 4.296 307.333 4.808C308.037 5.30933 308.512 6.02933 308.757 6.968H306.789C306.629 6.53067 306.373 6.18933 306.021 5.944C305.669 5.69867 305.227 5.576 304.693 5.576C303.947 5.576 303.349 5.84267 302.901 6.376C302.464 6.89867 302.245 7.63467 302.245 8.584C302.245 9.53333 302.464 10.2747 302.901 10.808C303.349 11.3413 303.947 11.608 304.693 11.608C305.749 11.608 306.448 11.144 306.789 10.216H308.757C308.501 11.112 308.021 11.8267 307.317 12.36C306.613 12.8827 305.739 13.144 304.693 13.144C303.851 13.144 303.104 12.9573 302.453 12.584C301.803 12.2 301.291 11.6667 300.917 10.984C300.555 10.2907 300.373 9.49067 300.373 8.584ZM311.503 3.016C311.172 3.016 310.895 2.904 310.671 2.68C310.447 2.456 310.335 2.17867 310.335 1.848C310.335 1.51733 310.447 1.24 310.671 1.016C310.895 0.791999 311.172 0.679999 311.503 0.679999C311.823 0.679999 312.095 0.791999 312.319 1.016C312.543 1.24 312.655 1.51733 312.655 1.848C312.655 2.17867 312.543 2.456 312.319 2.68C312.095 2.904 311.823 3.016 311.503 3.016ZM312.399 4.184V13H310.575V4.184H312.399ZM317.994 13.144C317.3 13.144 316.676 13.0213 316.122 12.776C315.578 12.52 315.146 12.1787 314.826 11.752C314.506 11.3147 314.335 10.8293 314.314 10.296H316.202C316.234 10.6693 316.41 10.984 316.73 11.24C317.06 11.4853 317.471 11.608 317.962 11.608C318.474 11.608 318.868 11.512 319.146 11.32C319.434 11.1173 319.578 10.8613 319.578 10.552C319.578 10.2213 319.418 9.976 319.098 9.816C318.788 9.656 318.292 9.48 317.61 9.288C316.948 9.10667 316.41 8.93067 315.994 8.76C315.578 8.58933 315.215 8.328 314.906 7.976C314.607 7.624 314.458 7.16 314.458 6.584C314.458 6.11467 314.596 5.688 314.874 5.304C315.151 4.90933 315.546 4.6 316.058 4.376C316.58 4.152 317.178 4.04 317.85 4.04C318.852 4.04 319.658 4.296 320.266 4.808C320.884 5.30933 321.215 5.99733 321.258 6.872H319.434C319.402 6.47733 319.242 6.16267 318.954 5.928C318.666 5.69333 318.276 5.576 317.786 5.576C317.306 5.576 316.938 5.66667 316.682 5.848C316.426 6.02933 316.298 6.26933 316.298 6.568C316.298 6.80267 316.383 7 316.554 7.16C316.724 7.32 316.932 7.448 317.178 7.544C317.423 7.62933 317.786 7.74133 318.266 7.88C318.906 8.05067 319.428 8.22667 319.834 8.408C320.25 8.57867 320.607 8.83467 320.906 9.176C321.204 9.51733 321.359 9.97067 321.37 10.536C321.37 11.0373 321.231 11.4853 320.954 11.88C320.676 12.2747 320.282 12.584 319.77 12.808C319.268 13.032 318.676 13.144 317.994 13.144ZM322.733 8.552C322.733 7.66667 322.914 6.88267 323.277 6.2C323.65 5.51733 324.151 4.98933 324.781 4.616C325.421 4.232 326.125 4.04 326.893 4.04C327.586 4.04 328.189 4.17867 328.701 4.456C329.223 4.72267 329.639 5.05867 329.949 5.464V4.184H331.789V13H329.949V11.688C329.639 12.104 329.218 12.4507 328.685 12.728C328.151 13.0053 327.543 13.144 326.861 13.144C326.103 13.144 325.41 12.952 324.781 12.568C324.151 12.1733 323.65 11.6293 323.277 10.936C322.914 10.232 322.733 9.43733 322.733 8.552ZM329.949 8.584C329.949 7.976 329.821 7.448 329.565 7C329.319 6.552 328.994 6.21067 328.589 5.976C328.183 5.74133 327.746 5.624 327.277 5.624C326.807 5.624 326.37 5.74133 325.965 5.976C325.559 6.2 325.229 6.536 324.973 6.984C324.727 7.42133 324.605 7.944 324.605 8.552C324.605 9.16 324.727 9.69333 324.973 10.152C325.229 10.6107 325.559 10.9627 325.965 11.208C326.381 11.4427 326.818 11.56 327.277 11.56C327.746 11.56 328.183 11.4427 328.589 11.208C328.994 10.9733 329.319 10.632 329.565 10.184C329.821 9.72533 329.949 9.192 329.949 8.584ZM340.165 5.48C340.474 5.07467 340.895 4.73333 341.429 4.456C341.962 4.17867 342.565 4.04 343.237 4.04C344.005 4.04 344.703 4.232 345.333 4.616C345.973 4.98933 346.474 5.51733 346.837 6.2C347.199 6.88267 347.381 7.66667 347.381 8.552C347.381 9.43733 347.199 10.232 346.837 10.936C346.474 11.6293 345.973 12.1733 345.333 12.568C344.703 12.952 344.005 13.144 343.237 13.144C342.565 13.144 341.967 13.0107 341.445 12.744C340.922 12.4667 340.495 12.1253 340.165 11.72V17.192H338.341V4.184H340.165V5.48ZM345.525 8.552C345.525 7.944 345.397 7.42133 345.141 6.984C344.895 6.536 344.565 6.2 344.149 5.976C343.743 5.74133 343.306 5.624 342.837 5.624C342.378 5.624 341.941 5.74133 341.525 5.976C341.119 6.21067 340.789 6.552 340.533 7C340.287 7.448 340.165 7.976 340.165 8.584C340.165 9.192 340.287 9.72533 340.533 10.184C340.789 10.632 341.119 10.9733 341.525 11.208C341.941 11.4427 342.378 11.56 342.837 11.56C343.306 11.56 343.743 11.4427 344.149 11.208C344.565 10.9627 344.895 10.6107 345.141 10.152C345.397 9.69333 345.525 9.16 345.525 8.552ZM348.576 8.552C348.576 7.66667 348.758 6.88267 349.12 6.2C349.494 5.51733 349.995 4.98933 350.624 4.616C351.264 4.232 351.968 4.04 352.736 4.04C353.43 4.04 354.032 4.17867 354.544 4.456C355.067 4.72267 355.483 5.05867 355.792 5.464V4.184H357.632V13H355.792V11.688C355.483 12.104 355.062 12.4507 354.528 12.728C353.995 13.0053 353.387 13.144 352.704 13.144C351.947 13.144 351.254 12.952 350.624 12.568C349.995 12.1733 349.494 11.6293 349.12 10.936C348.758 10.232 348.576 9.43733 348.576 8.552ZM355.792 8.584C355.792 7.976 355.664 7.448 355.408 7C355.163 6.552 354.838 6.21067 354.432 5.976C354.027 5.74133 353.59 5.624 353.12 5.624C352.651 5.624 352.214 5.74133 351.808 5.976C351.403 6.2 351.072 6.536 350.816 6.984C350.571 7.42133 350.448 7.944 350.448 8.552C350.448 9.16 350.571 9.69333 350.816 10.152C351.072 10.6107 351.403 10.9627 351.808 11.208C352.224 11.4427 352.662 11.56 353.12 11.56C353.59 11.56 354.027 11.4427 354.432 11.208C354.838 10.9733 355.163 10.632 355.408 10.184C355.664 9.72533 355.792 9.192 355.792 8.584ZM361.852 5.464C362.119 5.016 362.471 4.66933 362.908 4.424C363.356 4.168 363.884 4.04 364.492 4.04V5.928H364.028C363.313 5.928 362.769 6.10933 362.396 6.472C362.033 6.83467 361.852 7.464 361.852 8.36V13H360.028V4.184H361.852V5.464ZM365.561 8.552C365.561 7.66667 365.742 6.88267 366.105 6.2C366.478 5.51733 366.979 4.98933 367.609 4.616C368.249 4.232 368.953 4.04 369.721 4.04C370.414 4.04 371.017 4.17867 371.529 4.456C372.051 4.72267 372.467 5.05867 372.777 5.464V4.184H374.617V13H372.777V11.688C372.467 12.104 372.046 12.4507 371.513 12.728C370.979 13.0053 370.371 13.144 369.689 13.144C368.931 13.144 368.238 12.952 367.609 12.568C366.979 12.1733 366.478 11.6293 366.105 10.936C365.742 10.232 365.561 9.43733 365.561 8.552ZM372.777 8.584C372.777 7.976 372.649 7.448 372.393 7C372.147 6.552 371.822 6.21067 371.417 5.976C371.011 5.74133 370.574 5.624 370.105 5.624C369.635 5.624 369.198 5.74133 368.793 5.976C368.387 6.2 368.057 6.536 367.801 6.984C367.555 7.42133 367.433 7.944 367.433 8.552C367.433 9.16 367.555 9.69333 367.801 10.152C368.057 10.6107 368.387 10.9627 368.793 11.208C369.209 11.4427 369.646 11.56 370.105 11.56C370.574 11.56 371.011 11.4427 371.417 11.208C371.822 10.9733 372.147 10.632 372.393 10.184C372.649 9.72533 372.777 9.192 372.777 8.584ZM384.369 13.144C383.675 13.144 383.051 13.0213 382.497 12.776C381.953 12.52 381.521 12.1787 381.201 11.752C380.881 11.3147 380.71 10.8293 380.689 10.296H382.577C382.609 10.6693 382.785 10.984 383.105 11.24C383.435 11.4853 383.846 11.608 384.337 11.608C384.849 11.608 385.243 11.512 385.521 11.32C385.809 11.1173 385.953 10.8613 385.953 10.552C385.953 10.2213 385.793 9.976 385.473 9.816C385.163 9.656 384.667 9.48 383.985 9.288C383.323 9.10667 382.785 8.93067 382.369 8.76C381.953 8.58933 381.59 8.328 381.281 7.976C380.982 7.624 380.833 7.16 380.833 6.584C380.833 6.11467 380.971 5.688 381.249 5.304C381.526 4.90933 381.921 4.6 382.433 4.376C382.955 4.152 383.553 4.04 384.225 4.04C385.227 4.04 386.033 4.296 386.641 4.808C387.259 5.30933 387.59 5.99733 387.633 6.872H385.809C385.777 6.47733 385.617 6.16267 385.329 5.928C385.041 5.69333 384.651 5.576 384.161 5.576C383.681 5.576 383.313 5.66667 383.057 5.848C382.801 6.02933 382.673 6.26933 382.673 6.568C382.673 6.80267 382.758 7 382.929 7.16C383.099 7.32 383.307 7.448 383.553 7.544C383.798 7.62933 384.161 7.74133 384.641 7.88C385.281 8.05067 385.803 8.22667 386.209 8.408C386.625 8.57867 386.982 8.83467 387.281 9.176C387.579 9.51733 387.734 9.97067 387.745 10.536C387.745 11.0373 387.606 11.4853 387.329 11.88C387.051 12.2747 386.657 12.584 386.145 12.808C385.643 13.032 385.051 13.144 384.369 13.144ZM397.796 8.376C397.796 8.70667 397.774 9.00533 397.732 9.272H390.996C391.049 9.976 391.31 10.5413 391.78 10.968C392.249 11.3947 392.825 11.608 393.508 11.608C394.489 11.608 395.182 11.1973 395.588 10.376H397.556C397.289 11.1867 396.804 11.8533 396.1 12.376C395.406 12.888 394.542 13.144 393.508 13.144C392.665 13.144 391.908 12.9573 391.236 12.584C390.574 12.2 390.052 11.6667 389.668 10.984C389.294 10.2907 389.108 9.49067 389.108 8.584C389.108 7.67733 389.289 6.88267 389.652 6.2C390.025 5.50667 390.542 4.97333 391.204 4.6C391.876 4.22667 392.644 4.04 393.508 4.04C394.34 4.04 395.081 4.22133 395.732 4.584C396.382 4.94667 396.889 5.45867 397.252 6.12C397.614 6.77067 397.796 7.52267 397.796 8.376ZM395.892 7.8C395.881 7.128 395.641 6.58933 395.172 6.184C394.702 5.77867 394.121 5.576 393.428 5.576C392.798 5.576 392.26 5.77867 391.812 6.184C391.364 6.57867 391.097 7.11733 391.012 7.8H395.892ZM407.575 4.184V13H405.751V11.96C405.463 12.3227 405.084 12.6107 404.615 12.824C404.156 13.0267 403.665 13.128 403.143 13.128C402.449 13.128 401.825 12.984 401.271 12.696C400.727 12.408 400.295 11.9813 399.975 11.416C399.665 10.8507 399.511 10.168 399.511 9.368V4.184H401.319V9.096C401.319 9.88533 401.516 10.4933 401.911 10.92C402.305 11.336 402.844 11.544 403.527 11.544C404.209 11.544 404.748 11.336 405.143 10.92C405.548 10.4933 405.751 9.88533 405.751 9.096V4.184H407.575ZM413.53 8.552C413.53 7.66667 413.711 6.88267 414.074 6.2C414.447 5.51733 414.948 4.98933 415.578 4.616C416.218 4.232 416.927 4.04 417.706 4.04C418.282 4.04 418.847 4.168 419.402 4.424C419.967 4.66933 420.415 5 420.746 5.416V1.16H422.586V13H420.746V11.672C420.447 12.0987 420.031 12.4507 419.498 12.728C418.975 13.0053 418.372 13.144 417.69 13.144C416.922 13.144 416.218 12.952 415.578 12.568C414.948 12.1733 414.447 11.6293 414.074 10.936C413.711 10.232 413.53 9.43733 413.53 8.552ZM420.746 8.584C420.746 7.976 420.618 7.448 420.362 7C420.116 6.552 419.791 6.21067 419.386 5.976C418.98 5.74133 418.543 5.624 418.074 5.624C417.604 5.624 417.167 5.74133 416.762 5.976C416.356 6.2 416.026 6.536 415.77 6.984C415.524 7.42133 415.402 7.944 415.402 8.552C415.402 9.16 415.524 9.69333 415.77 10.152C416.026 10.6107 416.356 10.9627 416.762 11.208C417.178 11.4427 417.615 11.56 418.074 11.56C418.543 11.56 418.98 11.4427 419.386 11.208C419.791 10.9733 420.116 10.632 420.362 10.184C420.618 9.72533 420.746 9.192 420.746 8.584ZM433.061 8.376C433.061 8.70667 433.04 9.00533 432.997 9.272H426.261C426.315 9.976 426.576 10.5413 427.045 10.968C427.515 11.3947 428.091 11.608 428.773 11.608C429.755 11.608 430.448 11.1973 430.853 10.376H432.821C432.555 11.1867 432.069 11.8533 431.365 12.376C430.672 12.888 429.808 13.144 428.773 13.144C427.931 13.144 427.173 12.9573 426.501 12.584C425.84 12.2 425.317 11.6667 424.933 10.984C424.56 10.2907 424.373 9.49067 424.373 8.584C424.373 7.67733 424.555 6.88267 424.917 6.2C425.291 5.50667 425.808 4.97333 426.469 4.6C427.141 4.22667 427.909 4.04 428.773 4.04C429.605 4.04 430.347 4.22133 430.997 4.584C431.648 4.94667 432.155 5.45867 432.517 6.12C432.88 6.77067 433.061 7.52267 433.061 8.376ZM431.157 7.8C431.147 7.128 430.907 6.58933 430.437 6.184C429.968 5.77867 429.387 5.576 428.693 5.576C428.064 5.576 427.525 5.77867 427.077 6.184C426.629 6.57867 426.363 7.11733 426.277 7.8H431.157ZM438.056 13.144C437.363 13.144 436.739 13.0213 436.184 12.776C435.64 12.52 435.208 12.1787 434.888 11.752C434.568 11.3147 434.398 10.8293 434.376 10.296H436.264C436.296 10.6693 436.472 10.984 436.792 11.24C437.123 11.4853 437.534 11.608 438.024 11.608C438.536 11.608 438.931 11.512 439.208 11.32C439.496 11.1173 439.64 10.8613 439.64 10.552C439.64 10.2213 439.48 9.976 439.16 9.816C438.851 9.656 438.355 9.48 437.672 9.288C437.011 9.10667 436.472 8.93067 436.056 8.76C435.64 8.58933 435.278 8.328 434.968 7.976C434.67 7.624 434.52 7.16 434.52 6.584C434.52 6.11467 434.659 5.688 434.936 5.304C435.214 4.90933 435.608 4.6 436.12 4.376C436.643 4.152 437.24 4.04 437.912 4.04C438.915 4.04 439.72 4.296 440.328 4.808C440.947 5.30933 441.278 5.99733 441.32 6.872H439.496C439.464 6.47733 439.304 6.16267 439.016 5.928C438.728 5.69333 438.339 5.576 437.848 5.576C437.368 5.576 437 5.66667 436.744 5.848C436.488 6.02933 436.36 6.26933 436.36 6.568C436.36 6.80267 436.446 7 436.616 7.16C436.787 7.32 436.995 7.448 437.24 7.544C437.486 7.62933 437.848 7.74133 438.328 7.88C438.968 8.05067 439.491 8.22667 439.896 8.408C440.312 8.57867 440.67 8.83467 440.968 9.176C441.267 9.51733 441.422 9.97067 441.432 10.536C441.432 11.0373 441.294 11.4853 441.016 11.88C440.739 12.2747 440.344 12.584 439.832 12.808C439.331 13.032 438.739 13.144 438.056 13.144ZM451.483 8.376C451.483 8.70667 451.462 9.00533 451.419 9.272H444.683C444.736 9.976 444.998 10.5413 445.467 10.968C445.936 11.3947 446.512 11.608 447.195 11.608C448.176 11.608 448.87 11.1973 449.275 10.376H451.243C450.976 11.1867 450.491 11.8533 449.787 12.376C449.094 12.888 448.23 13.144 447.195 13.144C446.352 13.144 445.595 12.9573 444.923 12.584C444.262 12.2 443.739 11.6667 443.355 10.984C442.982 10.2907 442.795 9.49067 442.795 8.584C442.795 7.67733 442.976 6.88267 443.339 6.2C443.712 5.50667 444.23 4.97333 444.891 4.6C445.563 4.22667 446.331 4.04 447.195 4.04C448.027 4.04 448.768 4.22133 449.419 4.584C450.07 4.94667 450.576 5.45867 450.939 6.12C451.302 6.77067 451.483 7.52267 451.483 8.376ZM449.579 7.8C449.568 7.128 449.328 6.58933 448.859 6.184C448.39 5.77867 447.808 5.576 447.115 5.576C446.486 5.576 445.947 5.77867 445.499 6.184C445.051 6.57867 444.784 7.11733 444.699 7.8H449.579ZM457.726 4.04C458.419 4.04 459.038 4.184 459.582 4.472C460.137 4.76 460.569 5.18667 460.878 5.752C461.187 6.31733 461.342 7 461.342 7.8V13H459.534V8.072C459.534 7.28267 459.337 6.68 458.942 6.264C458.547 5.83733 458.009 5.624 457.326 5.624C456.643 5.624 456.099 5.83733 455.694 6.264C455.299 6.68 455.102 7.28267 455.102 8.072V13H453.278V4.184H455.102V5.192C455.401 4.82933 455.779 4.54667 456.238 4.344C456.707 4.14133 457.203 4.04 457.726 4.04ZM467.077 11.368L469.573 4.184H471.509L468.149 13H465.973L462.629 4.184H464.581L467.077 11.368ZM476.712 13.144C475.88 13.144 475.128 12.9573 474.456 12.584C473.784 12.2 473.256 11.6667 472.872 10.984C472.488 10.2907 472.296 9.49067 472.296 8.584C472.296 7.688 472.493 6.89333 472.888 6.2C473.282 5.50667 473.821 4.97333 474.504 4.6C475.186 4.22667 475.949 4.04 476.792 4.04C477.634 4.04 478.397 4.22667 479.08 4.6C479.762 4.97333 480.301 5.50667 480.696 6.2C481.09 6.89333 481.288 7.688 481.288 8.584C481.288 9.48 481.085 10.2747 480.68 10.968C480.274 11.6613 479.72 12.2 479.016 12.584C478.322 12.9573 477.554 13.144 476.712 13.144ZM476.712 11.56C477.181 11.56 477.618 11.448 478.024 11.224C478.44 11 478.776 10.664 479.032 10.216C479.288 9.768 479.416 9.224 479.416 8.584C479.416 7.944 479.293 7.40533 479.048 6.968C478.802 6.52 478.477 6.184 478.072 5.96C477.666 5.736 477.229 5.624 476.76 5.624C476.29 5.624 475.853 5.736 475.448 5.96C475.053 6.184 474.738 6.52 474.504 6.968C474.269 7.40533 474.152 7.944 474.152 8.584C474.152 9.53333 474.392 10.2693 474.872 10.792C475.362 11.304 475.976 11.56 476.712 11.56ZM484.915 1.16V13H483.091V1.16H484.915ZM490.717 11.368L493.213 4.184H495.149L491.789 13H489.613L486.269 4.184H488.221L490.717 11.368ZM497.456 3.016C497.125 3.016 496.848 2.904 496.624 2.68C496.4 2.456 496.288 2.17867 496.288 1.848C496.288 1.51733 496.4 1.24 496.624 1.016C496.848 0.791999 497.125 0.679999 497.456 0.679999C497.776 0.679999 498.048 0.791999 498.272 1.016C498.496 1.24 498.608 1.51733 498.608 1.848C498.608 2.17867 498.496 2.456 498.272 2.68C498.048 2.904 497.776 3.016 497.456 3.016ZM498.352 4.184V13H496.528V4.184H498.352ZM511.419 4.04C512.112 4.04 512.731 4.184 513.275 4.472C513.83 4.76 514.262 5.18667 514.571 5.752C514.891 6.31733 515.051 7 515.051 7.8V13H513.243V8.072C513.243 7.28267 513.046 6.68 512.651 6.264C512.256 5.83733 511.718 5.624 511.035 5.624C510.352 5.624 509.808 5.83733 509.403 6.264C509.008 6.68 508.811 7.28267 508.811 8.072V13H507.003V8.072C507.003 7.28267 506.806 6.68 506.411 6.264C506.016 5.83733 505.478 5.624 504.795 5.624C504.112 5.624 503.568 5.83733 503.163 6.264C502.768 6.68 502.571 7.28267 502.571 8.072V13H500.747V4.184H502.571V5.192C502.87 4.82933 503.248 4.54667 503.707 4.344C504.166 4.14133 504.656 4.04 505.179 4.04C505.883 4.04 506.512 4.18933 507.067 4.488C507.622 4.78667 508.048 5.21867 508.347 5.784C508.614 5.25067 509.03 4.82933 509.595 4.52C510.16 4.2 510.768 4.04 511.419 4.04ZM525.452 8.376C525.452 8.70667 525.431 9.00533 525.388 9.272H518.652C518.705 9.976 518.967 10.5413 519.436 10.968C519.905 11.3947 520.481 11.608 521.164 11.608C522.145 11.608 522.839 11.1973 523.244 10.376H525.212C524.945 11.1867 524.46 11.8533 523.756 12.376C523.063 12.888 522.199 13.144 521.164 13.144C520.321 13.144 519.564 12.9573 518.892 12.584C518.231 12.2 517.708 11.6667 517.324 10.984C516.951 10.2907 516.764 9.49067 516.764 8.584C516.764 7.67733 516.945 6.88267 517.308 6.2C517.681 5.50667 518.199 4.97333 518.86 4.6C519.532 4.22667 520.3 4.04 521.164 4.04C521.996 4.04 522.737 4.22133 523.388 4.584C524.039 4.94667 524.545 5.45867 524.908 6.12C525.271 6.77067 525.452 7.52267 525.452 8.376ZM523.548 7.8C523.537 7.128 523.297 6.58933 522.828 6.184C522.359 5.77867 521.777 5.576 521.084 5.576C520.455 5.576 519.916 5.77867 519.468 6.184C519.02 6.57867 518.753 7.11733 518.668 7.8H523.548ZM531.695 4.04C532.388 4.04 533.007 4.184 533.551 4.472C534.106 4.76 534.538 5.18667 534.847 5.752C535.156 6.31733 535.311 7 535.311 7.8V13H533.503V8.072C533.503 7.28267 533.306 6.68 532.911 6.264C532.516 5.83733 531.978 5.624 531.295 5.624C530.612 5.624 530.068 5.83733 529.663 6.264C529.268 6.68 529.071 7.28267 529.071 8.072V13H527.247V4.184H529.071V5.192C529.37 4.82933 529.748 4.54667 530.207 4.344C530.676 4.14133 531.172 4.04 531.695 4.04ZM539.766 5.672V10.552C539.766 10.8827 539.84 11.1227 539.99 11.272C540.15 11.4107 540.416 11.48 540.79 11.48H541.91V13H540.47C539.648 13 539.019 12.808 538.582 12.424C538.144 12.04 537.926 11.416 537.926 10.552V5.672H536.886V4.184H537.926V1.992H539.766V4.184H541.91V5.672H539.766ZM547.415 13.144C546.583 13.144 545.831 12.9573 545.159 12.584C544.487 12.2 543.959 11.6667 543.575 10.984C543.191 10.2907 542.999 9.49067 542.999 8.584C542.999 7.688 543.196 6.89333 543.591 6.2C543.985 5.50667 544.524 4.97333 545.207 4.6C545.889 4.22667 546.652 4.04 547.495 4.04C548.337 4.04 549.1 4.22667 549.783 4.6C550.465 4.97333 551.004 5.50667 551.399 6.2C551.793 6.89333 551.991 7.688 551.991 8.584C551.991 9.48 551.788 10.2747 551.383 10.968C550.977 11.6613 550.423 12.2 549.719 12.584C549.025 12.9573 548.257 13.144 547.415 13.144ZM547.415 11.56C547.884 11.56 548.321 11.448 548.727 11.224C549.143 11 549.479 10.664 549.735 10.216C549.991 9.768 550.119 9.224 550.119 8.584C550.119 7.944 549.996 7.40533 549.751 6.968C549.505 6.52 549.18 6.184 548.775 5.96C548.369 5.736 547.932 5.624 547.463 5.624C546.993 5.624 546.556 5.736 546.151 5.96C545.756 6.184 545.441 6.52 545.207 6.968C544.972 7.40533 544.855 7.944 544.855 8.584C544.855 9.53333 545.095 10.2693 545.575 10.792C546.065 11.304 546.679 11.56 547.415 11.56ZM556.082 1.88L555.874 9.64H554.354L554.146 1.88H556.082ZM555.17 13.112C554.839 13.112 554.562 13 554.338 12.776C554.114 12.552 554.002 12.2747 554.002 11.944C554.002 11.6133 554.114 11.336 554.338 11.112C554.562 10.888 554.839 10.776 555.17 10.776C555.49 10.776 555.762 10.888 555.986 11.112C556.21 11.336 556.322 11.6133 556.322 11.944C556.322 12.2747 556.21 12.552 555.986 12.776C555.762 13 555.49 13.112 555.17 13.112Z" fill="white"/>
</svg>
